<?xml version="1.0" encoding="UTF-8" standalone="no"?>
<!-- Created with Inkscape (http://www.inkscape.org/) -->

<svg
   xmlns:dc="http://purl.org/dc/elements/1.1/"
   xmlns:cc="http://creativecommons.org/ns#"
   xmlns:rdf="http://www.w3.org/1999/02/22-rdf-syntax-ns#"
   xmlns:svg="http://www.w3.org/2000/svg"
   xmlns="http://www.w3.org/2000/svg"
   xmlns:sodipodi="http://sodipodi.sourceforge.net/DTD/sodipodi-0.dtd"
   xmlns:inkscape="http://www.inkscape.org/namespaces/inkscape"
   id="svg2"
   version="1.1"
   inkscape:version="0.47 r22583"
   width="218"
   height="191"
   sodipodi:docname="MirasMercs_SC2_Logo1.svg">
  <metadata
     id="metadata8">
    <rdf:RDF>
      <cc:Work
         rdf:about="">
        <dc:format>image/svg+xml</dc:format>
        <dc:type
           rdf:resource="http://purl.org/dc/dcmitype/StillImage" />
      </cc:Work>
    </rdf:RDF>
  </metadata>
  <defs
     id="defs6">
    <inkscape:perspective
       sodipodi:type="inkscape:persp3d"
       inkscape:vp_x="0 : 0.5 : 1"
       inkscape:vp_y="0 : 1000 : 0"
       inkscape:vp_z="1 : 0.5 : 1"
       inkscape:persp3d-origin="0.5 : 0.33333333 : 1"
       id="perspective10" />
  </defs>
  <sodipodi:namedview
     pagecolor="#ffffff"
     bordercolor="#666666"
     borderopacity="1"
     objecttolerance="10"
     gridtolerance="10"
     guidetolerance="10"
     inkscape:pageopacity="0"
     inkscape:pageshadow="2"
     inkscape:window-width="1024"
     inkscape:window-height="713"
     id="namedview4"
     showgrid="false"
     inkscape:zoom="1.3037281"
     inkscape:cx="85.949816"
     inkscape:cy="146.28206"
     inkscape:window-x="-4"
     inkscape:window-y="-3"
     inkscape:window-maximized="1"
     inkscape:current-layer="svg2"
     showguides="true"
     inkscape:guide-bbox="true" />
  <path
     style="fill:#ffffff;fill-opacity:1;stroke:#7f7f7f;stroke-width:4;stroke-linecap:butt;stroke-linejoin:miter;stroke-miterlimit:4;stroke-opacity:0.49803922;stroke-dasharray:none"
     d="M 7.0000007,164.56991 C 33.055831,173.8288 54.005531,137.99482 62.321911,88.638892 l 16.194,6.451 c -11.32023,38.736178 44.474609,56.571218 56.357049,17.837258 9.07,-32.981228 -43.374909,-54.080588 -56.357049,-17.837258 l -16.194,-6.451 C 69.120781,14.158212 108.98543,8.6544523 125.77966,6.7394023 87.271181,42.445622 129.0339,73.541662 159.40679,89.180082 c 56.67796,24.497168 58.30509,66.621458 44.20338,84.881348 1.03955,-18.89266 -7.14124,-27.20904 -10.98305,-29.83051 -19.38982,-14.55367 -55.8644,-9.58192 -85.8305,9.76271 -28.564979,21.69491 -67.706229,49.35594 -99.7966193,10.57628 z"
     id="path2818"
     sodipodi:nodetypes="cccccccccccc" />
  <path
     style="fill:#ffffff;fill-opacity:1;stroke:none"
     d="m 64.627121,86.739402 -0.94915,6.23729 12.20338,4.06779 1.62712,-5.28813 -12.88135,-5.01695 z"
     id="path3623"
     sodipodi:nodetypes="ccccc" />
  <rect
     style="fill:none;stroke:none"
     id="rect3625"
     width="218"
     height="191"
     x="0"
     y="0" />
</svg>
